<svg id="Layer_1" data-name="Layer 1" xmlns="http://www.w3.org/2000/svg" viewBox="0 0 792 612"><defs><style>.cls-1{fill:#fff;}.cls-2{fill:none;}</style></defs><title>VRCLogo</title><path class="cls-1" d="M66.9,361.86h35.9c13,0,15,4.28,15,12.71v3.66c0,6.32-3.6,8.06-8.25,8.49v.13c6.2,1.12,7.69,4.34,7.69,8.43v11.47h-5.71V396.9c0-7-3.41-7.87-8.93-7.87H73v17.73H66.9Zm35.22,22.2c6.76,0,9.61-1.8,9.61-6.51v-4.09c0-5-2.17-6.63-11.1-6.63H73v17.24Z"/><path class="cls-1" d="M158.41,378.17c0-11.35,3.84-16.8,16-16.8h25.86c12.15,0,16,5.46,16,16.8v12.27c0,11.35-3.84,16.81-16,16.81H174.41c-12.15,0-16-5.46-16-16.81Zm51.78-2.3c0-7.81-4.71-9.55-10.54-9.55H175c-5.83,0-10.54,1.74-10.54,9.55v16.87c0,7.81,4.71,9.55,10.54,9.55h24.62c5.83,0,10.54-1.74,10.54-9.55Z"/><path class="cls-1" d="M258.11,361.86h38.32c9.3,0,11.91,4.84,11.91,10v3.85c0,3.22-1.8,6.51-7.25,7.07V383c4.78.25,9,2,9,8.87v5.33c0,6.26-5.58,9.55-13,9.55H258.11Zm44.15,9.68c0-4.09-4.53-4.71-6.39-4.71H264.19v14.32h31.37c3.29,0,6.7-1.05,6.7-5.52Zm1.74,21c0-5.58-3.1-6.45-8.62-6.45H264.19v15.69h32.12c5.64,0,7.69-2,7.69-6Z"/><path class="cls-1" d="M350.8,378.17c0-11.35,3.84-16.8,16-16.8h25.86c12.15,0,16,5.46,16,16.8v12.27c0,11.35-3.84,16.81-16,16.81H366.8c-12.15,0-16-5.46-16-16.81Zm51.77-2.3c0-7.81-4.71-9.55-10.54-9.55H367.42c-5.83,0-10.54,1.74-10.54,9.55v16.87c0,7.81,4.71,9.55,10.54,9.55H392c5.83,0,10.54-1.74,10.54-9.55Z"/><path class="cls-1" d="M468.3,366.82H445.6v-5h51.46v5h-22.7v39.93H468.3Z"/><path class="cls-1" d="M535.38,361.86h6.08v44.89h-6.08Z"/><path class="cls-1" d="M583.49,378.17c0-11.35,3.85-16.8,16-16.8h23.25c11,0,14.07,5.15,14.07,11.16v3.84h-5.33v-2c0-7.63-4.71-8-10.29-8H600.11c-5.83,0-10.54,1.74-10.54,9.55v16.87c0,7.81,4.71,9.55,10.54,9.55h21.27c8.19,0,10.54-1.74,10.54-7.81v-2.79h5.7v3c0,8.12-2.6,12.53-15.19,12.53H599.49c-12.15,0-16-5.46-16-16.81Z"/><path class="cls-1" d="M677.43,392.62h5.71v3.16c0,4.4,2.35,6.51,9.92,6.51H711.9c8.8,0,11.41-1.86,11.41-8.31,0-5.64-2.23-7.07-9.8-7.07H702c-18.54,0-24.62-1.12-24.62-13,0-10.23,6.08-12.53,18.6-12.53h13.08c15.07,0,18.85,3.85,18.85,11.84v1.55H722.2c-.12-7.13-.87-8.43-16.8-8.43h-6.45c-11.72,0-15.87.62-15.87,8,0,5.33,1.68,7.13,11.16,7.13h18c11.84,0,16.8,3.41,16.8,11v2.91c0,11-9.05,11.85-18,11.85H694.11c-8.87,0-16.68-1.55-16.68-11.35Z"/><path class="cls-1" d="M64.87,462.77c0-13.78,7.74-17,20.74-17h17c20.54,0,23.21,4.42,23.07,17.74H111.21v-1.3c0-3.38-2.47-4.36-6.76-4.36H88.73c-7.61,0-9,3.58-9,9.42v5.07c0,6.82,1.43,9.42,8.26,9.42h15.4c6.5,0,8.45-.65,8.45-6.5h14.43v4.42c0,7.93-2.86,14.17-17.35,14.17H85.61c-13,0-20.74-3.25-20.74-17Z"/><path class="cls-1" d="M134.44,462.77c0-13.78,7.74-17,20.74-17h23.14c13,0,20.73,3.25,20.73,17v14c0,13.78-7.73,17-20.73,17H155.18c-13,0-20.74-3.25-20.74-17Zm14.82,9.55c0,6.82,1.43,9.42,8.26,9.42H176c6.82,0,8.25-2.6,8.25-9.42v-5.07c0-5.85-1.43-9.42-9-9.42H158.3c-7.61,0-9,3.58-9,9.42Z"/><path class="cls-1" d="M208.3,446.26h22.16l16.31,30.29,16.32-30.29h22.16v47.06h-14v-33.8h-.13l-18.91,33.8H241.39l-18.91-33.8h-.13v33.8h-14Z"/><path class="cls-1" d="M295.56,446.26h39.32c13.71,0,17,6.89,17,16.12v4c0,7-3.06,15.08-13.26,15.08H310v11.83H295.56ZM310,469.79h22.42c3.38,0,4.68-2.21,4.68-5V463c0-3.18-1.56-5-5.91-5H310Z"/><path class="cls-1" d="M360.26,446.26h51.48v10.92h-37v7.54h35.1v9.75h-35.1V482h37.89v11.31H360.26Z"/><path class="cls-1" d="M418.38,446.26h55V458H453.09v35.36H438.66V458H418.38Z"/><path class="cls-1" d="M481,446.26h14.43v47.06H481Z"/><path class="cls-1" d="M503,446.26h55V458H537.75v35.36H523.32V458H503Z"/><path class="cls-1" d="M565.65,446.26h14.43v47.06H565.65Z"/><path class="cls-1" d="M590.1,462.77c0-13.78,7.73-17,20.73-17H634c13,0,20.73,3.25,20.73,17v14c0,13.78-7.73,17-20.73,17H610.83c-13,0-20.73-3.25-20.73-17Zm14.82,9.55c0,6.82,1.43,9.42,8.26,9.42h18.46c6.83,0,8.25-2.6,8.25-9.42v-5.07c0-5.85-1.43-9.42-9-9.42H614c-7.61,0-9,3.58-9,9.42Z"/><path class="cls-1" d="M664,446.26h22.36l27.1,34.19h.13V446.26H728v47.06H705.62l-27.1-34.19h-.13v34.19H664Z"/><path class="cls-1" d="M667.28,203.32a2.45,2.45,0,0,0-1.39.44l-57.67,40.1-57.95-40.1a2.47,2.47,0,0,0-1.39-.43H498a2.45,2.45,0,0,0-2.34,1.72,2.52,2.52,0,0,0-.1.72,2.44,2.44,0,0,0,1.07,2l82.51,55.85-89.53,60a2.44,2.44,0,0,0-1.08,2,2.25,2.25,0,0,0,.11.71,2.42,2.42,0,0,0,2.33,1.73h52a2.38,2.38,0,0,0,1.38-.44l63.87-44.21,63.3,44.21a2.42,2.42,0,0,0,1.4.44H724.1a2.43,2.43,0,0,0,2.33-1.72,2.34,2.34,0,0,0,.11-.72,2.43,2.43,0,0,0-1.08-2l-89-60,82.79-55.85a2.43,2.43,0,0,0,1.07-2,2.59,2.59,0,0,0-.1-.71,2.44,2.44,0,0,0-2.33-1.73Z"/><path class="cls-1" d="M267,203.32a2.44,2.44,0,0,0-1.89.89l-76.29,93.31-74.9-93.29a2.44,2.44,0,0,0-1.9-.91H69.25a2.44,2.44,0,0,0-1.88,4l98.72,119.87a2.44,2.44,0,0,0,1.88.88h41.63a2.42,2.42,0,0,0,1.87-.87L311.61,207.33a2.44,2.44,0,0,0-1.87-4Z"/><path class="cls-1" d="M334.55,203.3c-4.9-9-7.87-20.92-7.87-33.85,0-27.3,13.68-50.23,30.33-50.23H462.37c5.61,0,10.23,7.64,10.23,16.93s-4.61,16.93-10.23,16.93H357c-5.61,0-9.9,7.64-9.9,16.38s4,17.2,9.9,17.2H462.37c5.61,0,10.23,7.53,10.23,16.67h0c0,9.15-4.61,16.67-10.23,16.67H357c-5.93,0-9.9,8.47-9.9,17.2s4.29,16.38,9.9,16.38H462.37c5.61,0,10.23,7.64,10.23,16.92s-4.61,16.93-10.23,16.93H357c-16.65,0-30.33-22.93-30.33-50.23,0-12.93,3-24.85,7.87-33.85Z"/><path class="cls-1" d="M738.05,313.15a8.45,8.45,0,0,1,4,1.06,7.59,7.59,0,0,1,3.07,3,8.38,8.38,0,0,1,1.1,4.12,8.29,8.29,0,0,1-1.09,4.08,7.56,7.56,0,0,1-3,3,8.22,8.22,0,0,1-8.18,0,7.62,7.62,0,0,1-3-3,8.21,8.21,0,0,1,0-8.2,7.63,7.63,0,0,1,3.08-3A8.45,8.45,0,0,1,738.05,313.15Zm0,1.36a7,7,0,0,0-3.37.89,6.36,6.36,0,0,0-2.56,2.54,6.84,6.84,0,0,0,0,6.84,6.5,6.5,0,0,0,2.54,2.54,6.84,6.84,0,0,0,6.82,0,6.43,6.43,0,0,0,2.53-2.54,6.86,6.86,0,0,0,0-6.84,6.31,6.31,0,0,0-2.56-2.54A7,7,0,0,0,738.05,314.51Zm-3.6,11.4v-8.84h3a7.5,7.5,0,0,1,2.26.24,2.18,2.18,0,0,1,1.11.86,2.27,2.27,0,0,1,.42,1.29,2.35,2.35,0,0,1-.7,1.69,2.75,2.75,0,0,1-1.83.81,2.43,2.43,0,0,1,.75.47,9.89,9.89,0,0,1,1.31,1.75l1.08,1.73h-1.74l-.78-1.39a7.11,7.11,0,0,0-1.49-2.06,1.8,1.8,0,0,0-1.14-.31h-.84v3.76Zm1.42-5h1.73a2.8,2.8,0,0,0,1.69-.37,1.28,1.28,0,0,0,.23-1.68,1.3,1.3,0,0,0-.61-.46,4.49,4.49,0,0,0-1.43-.15h-1.62Z"/><rect class="cls-2" x="67.05" y="119.22" width="661.11" height="208.85"/><rect class="cls-2" x="31.92" y="84.09" width="730.03" height="445.04"/></svg>